PathFileType   4   (X/Y/Z)
DataRate  CameraRate  NumFrames  NumMarkers  Units  OrigDataRate  OrigDataStartFrame  OrigNumFrames  
  120.0      120.0        7         37         mm      120.0          1        151
Frame#      Time                    midhip                           hip_r                           hip_l                          knee_r                          knee_l                         ankle_r                         ankle_l                         midasis                          asis_r                          asis_l                          psis_r                          psis_l                    epicondLat_r                    epicondLat_l                    epicondMed_r                    epicondMed_l                  malleolusLat_r                  malleolusLat_l                 malleolusMedv_r                 malleolusMedv_l                    sternalnotch                  xyphoidprocess                            neck                           toe_r                           toe_l                     thighwand_r                     thighwand_l                     upperleg1_r                     upperleg1_l                     upperleg2_r                     upperleg2_l                     shankwand_r                     shankwand_l                     lowerleg1_r                     lowerleg1_l                   subclavicle_r                   subclavicle_l            
              X1          Y1          Z1          X2          Y2          Z2          X3          Y3          Z3          X4          Y4          Z4          X5          Y5          Z5          X6          Y6          Z6          X7          Y7          Z7          X8          Y8          Z8          X9          Y9          Z9          X10          Y10          Z10          X11          Y11          Z11          X12          Y12          Z12          X13          Y13          Z13          X14          Y14          Z14          X15          Y15          Z15          X16          Y16          Z16          X17          Y17          Z17          X18          Y18          Z18          X19          Y19          Z19          X20          Y20          Z20          X21          Y21          Z21          X22          Y22          Z22          X23          Y23          Z23          X24          Y24          Z24          X25          Y25          Z25          X26          Y26          Z26          X27          Y27          Z27          X28          Y28          Z28          X29          Y29          Z29          X30          Y30          Z30          X31          Y31          Z31          X32          Y32          Z32          X33          Y33          Z33          X34          Y34          Z34          X35          Y35          Z35          X36          Y36          Z36          X37          Y37          Z37          

	1	0.18333	-2105.677	766.842	251.114	-2122.399	761.695	305.812	-2088.954	771.990	196.417	-2201.881	415.925	336.352	-2090.307	423.052	200.630	-2435.284	152.316	318.986	-2059.740	65.799	206.286	-2073.761	838.891	267.129	-2091.341	835.003	377.545	-2056.180	842.778	156.713	-2248.639	865.939	264.597	-2244.289	867.286	218.446	-2193.402	413.887	395.293	-2066.916	417.586	141.570	-2170.516	409.755	266.899	-2094.994	421.182	260.129	-2442.945	156.859	355.413	-2066.231	64.669	170.385	-2435.344	142.824	286.692	-2065.592	66.525	239.693	-2086.595	1194.234	244.783	-2074.989	1092.800	240.442	-2197.176	1262.109	240.816	-2394.155	72.596	330.803	-1966.885	47.784	202.644	-2045.619	540.921	379.324	-1976.939	574.784	138.754	-2102.671	586.073	403.481	-2013.259	618.024	196.228	-2117.375	528.367	397.272	-2018.840	560.477	206.113	-2267.748	159.104	360.881	-2071.304	165.067	78.925	-2336.470	195.049	335.973	-2072.489	158.358	158.452	-2090.480	1192.807	301.298	-2077.824	1196.147	195.068
	2	0.19167	-2099.567	767.069	250.196	-2116.389	761.976	304.868	-2082.746	772.161	195.523	-2191.284	415.584	336.600	-2088.073	423.780	200.393	-2426.819	155.201	318.132	-2059.247	65.751	206.386	-2067.569	839.143	266.209	-2085.292	835.373	376.550	-2049.845	842.913	155.868	-2242.869	866.146	263.856	-2237.886	867.065	217.218	-2182.773	413.665	395.499	-2062.496	417.648	141.274	-2159.190	409.462	266.780	-2092.235	423.215	261.393	-2434.924	160.174	354.406	-2065.825	64.655	170.500	-2425.031	148.450	285.161	-2064.988	66.432	239.816	-2080.081	1194.261	243.837	-2068.418	1092.834	239.483	-2190.922	1262.282	239.106	-2387.823	74.425	331.588	-1966.714	47.380	202.993	-2036.641	542.154	380.094	-1971.401	574.467	137.787	-2094.073	586.212	403.451	-2006.811	618.107	195.378	-2108.044	529.271	397.359	-2013.571	560.184	205.896	-2259.746	159.940	362.376	-2069.925	164.966	78.983	-2324.663	199.205	336.565	-2070.992	158.240	158.583	-2084.099	1192.810	300.321	-2071.194	1196.198	194.165
	3	0.20000	-2093.493	767.172	249.357	-2110.399	762.121	304.006	-2076.586	772.223	194.707	-2180.271	415.434	336.710	-2083.187	424.178	200.200	-2418.043	157.903	317.212	-2058.832	65.711	206.479	-2061.464	839.317	265.359	-2079.321	835.646	375.612	-2043.607	842.987	155.106	-2237.016	866.129	263.030	-2231.639	866.837	216.077	-2172.130	413.461	395.588	-2058.136	417.672	141.026	-2147.169	410.354	264.972	-2086.990	423.380	261.188	-2426.597	163.322	353.319	-2065.477	64.653	170.604	-2415.291	152.178	284.035	-2064.444	66.300	239.929	-2073.720	1194.374	242.819	-2062.069	1092.950	238.386	-2184.739	1262.519	238.169	-2380.817	76.553	332.810	-1966.589	47.022	203.352	-2027.832	543.453	380.769	-1965.997	574.183	137.184	-2086.054	586.321	403.721	-2001.425	618.341	195.284	-2098.991	530.268	397.139	-2008.265	560.243	205.752	-2251.468	160.811	363.855	-2068.592	164.869	79.017	-2314.483	201.871	336.957	-2069.547	158.151	158.778	-2077.864	1192.860	299.606	-2064.717	1196.366	192.851
	4	0.20833	-2087.321	767.160	248.613	-2104.284	762.131	303.247	-2070.357	772.190	193.978	-2170.942	415.207	336.670	-2078.951	425.469	199.989	-2408.965	160.382	316.255	-2058.491	65.680	206.561	-2055.432	839.434	264.581	-2073.411	835.852	374.741	-2037.454	843.015	154.421	-2231.014	865.860	262.075	-2225.530	866.617	215.027	-2161.466	413.289	395.598	-2053.831	417.659	140.800	-2137.477	409.528	266.180	-2081.814	423.926	260.958	-2417.978	166.271	352.177	-2065.178	64.663	170.694	-2406.211	154.012	283.264	-2063.736	66.289	240.019	-2067.528	1194.472	242.067	-2055.984	1093.041	237.516	-2178.464	1262.810	236.743	-2373.145	78.927	334.442	-1966.494	46.717	203.689	-2019.120	544.831	381.302	-1960.709	573.940	136.881	-2077.739	587.097	403.533	-1995.531	618.719	195.551	-2090.415	530.857	397.415	-2002.643	560.640	205.741	-2242.924	161.725	365.376	-2067.276	164.776	79.014	-2306.009	202.979	337.137	-2067.891	158.043	158.802	-2071.962	1192.860	299.078	-2058.266	1196.545	191.899
	5	0.21667	-2081.042	767.070	247.964	-2098.040	762.045	302.588	-2064.045	772.094	193.340	-2162.079	414.368	336.596	-2073.654	426.824	199.777	-2399.550	162.579	315.309	-2058.212	65.658	206.631	-2049.467	839.523	263.873	-2067.557	836.026	373.949	-2031.376	843.019	153.797	-2224.860	865.375	260.999	-2219.550	866.420	214.080	-2150.770	413.168	395.560	-2049.571	417.617	140.596	-2128.924	406.553	270.517	-2075.762	423.601	259.364	-2409.039	168.963	351.022	-2064.915	64.684	170.765	-2396.262	155.673	282.456	-2063.243	66.509	240.078	-2061.442	1194.642	241.228	-2049.847	1093.217	236.674	-2172.354	1262.933	235.483	-2364.820	81.436	336.386	-1966.418	46.465	203.980	-2010.421	546.298	381.647	-1955.494	573.742	136.800	-2068.794	588.266	402.759	-1989.754	618.942	195.881	-2081.600	531.098	398.170	-1996.796	561.123	205.344	-2234.109	162.676	366.995	-2065.953	164.690	78.976	-2296.256	204.328	337.176	-2066.415	158.120	158.617	-2066.120	1193.002	298.073	-2051.968	1196.741	191.247
	6	0.22500	-2074.642	766.899	247.426	-2091.660	761.867	302.043	-2057.625	771.930	192.809	-2150.185	412.482	336.559	-2064.047	425.751	199.591	-2389.735	164.416	314.420	-2057.976	65.646	206.688	-2043.567	839.610	263.234	-2061.771	836.198	373.247	-2025.363	843.023	153.221	-2218.663	864.794	259.887	-2213.688	866.256	213.239	-2140.034	413.109	395.498	-2045.341	417.552	140.430	-2117.241	404.173	273.131	-2065.508	420.495	257.194	-2399.720	171.321	349.900	-2064.672	64.718	170.820	-2385.871	157.564	281.586	-2063.011	66.798	240.118	-2055.583	1194.781	240.344	-2044.011	1093.336	236.188	-2166.542	1263.045	234.882	-2355.852	83.934	338.482	-1966.357	46.258	204.208	-2001.693	547.847	381.764	-1950.301	573.578	136.867	-2060.272	589.278	402.406	-1985.314	618.543	196.284	-2072.012	531.318	398.693	-1990.599	561.451	204.788	-2225.008	163.649	368.751	-2064.605	164.619	78.907	-2286.201	206.192	337.322	-2065.170	158.262	158.375	-2060.430	1193.346	297.144	-2045.961	1196.697	190.422
	7	0.23333	-2068.408	766.800	246.944	-2085.460	761.775	301.551	-2051.357	771.826	192.338	-2137.898	410.679	336.536	-2057.270	425.811	199.475	-2379.467	165.827	313.628	-2057.765	65.641	206.731	-2037.741	839.712	262.664	-2056.073	836.382	372.644	-2019.409	843.042	152.685	-2212.559	864.264	258.831	-2207.926	866.129	212.493	-2129.256	413.111	395.418	-2041.139	417.472	140.324	-2104.987	402.503	274.607	-2058.726	418.737	255.190	-2389.968	173.274	348.848	-2064.432	64.764	170.856	-2375.212	158.629	280.927	-2062.763	66.906	240.154	-2049.845	1194.798	239.957	-2038.399	1093.320	236.272	-2160.764	1263.248	233.698	-2346.228	86.264	340.530	-1966.310	46.084	204.359	-1992.893	549.464	381.650	-1945.107	573.427	137.023	-2052.263	590.096	402.116	-1980.506	618.121	196.914	-2062.580	531.792	398.934	-1985.191	561.321	204.612	-2215.606	164.616	370.639	-2063.221	164.566	78.814	-2276.202	207.314	337.650	-2063.874	158.262	158.287	-2054.915	1193.606	296.942	-2040.023	1196.494	189.864
